<svg width="24" height="25" viewBox="0 0 24 25" fill="none" xmlns="http://www.w3.org/2000/svg">
<path opacity="0.1" fill-rule="evenodd" clip-rule="evenodd" d="M0 12.3857C0 5.75833 5.37258 0.385742 12 0.385742C18.6274 0.385742 24 5.75833 24 12.3857C24 19.0132 18.6274 24.3857 12 24.3857C5.37258 24.3857 0 19.0132 0 12.3857Z" fill="#F9F8F9"/>
<path fill-rule="evenodd" clip-rule="evenodd" d="M18.4 12.3768C18.4 12.8097 18.3559 13.2419 18.2694 13.6632C18.185 14.0745 18.06 14.4783 17.8962 14.8643C17.7363 15.2435 17.5378 15.6089 17.3059 15.9497C17.0775 16.2883 16.8143 16.606 16.5252 16.8956C16.2355 17.1839 15.9168 17.4463 15.5783 17.6757C15.2364 17.906 14.8705 18.1042 14.4911 18.2649C14.1045 18.4278 13.6998 18.5526 13.2888 18.6369C12.867 18.7236 12.4332 18.7679 11.9997 18.7679C11.5659 18.7679 11.1322 18.7236 10.7109 18.6369C10.2993 18.5526 9.89462 18.4278 9.50835 18.2649C9.12896 18.1042 8.76267 17.906 8.42079 17.6757C8.08234 17.4464 7.76357 17.1839 7.47449 16.8956C7.18511 16.606 6.92196 16.2883 6.6932 15.9497C6.46256 15.6089 6.26379 15.2435 6.10317 14.8643C5.93939 14.4783 5.81409 14.0745 5.72939 13.6632C5.64377 13.2419 5.60001 12.8097 5.60001 12.3768C5.60001 11.9437 5.64374 11.5106 5.72942 11.0902C5.81411 10.6789 5.93941 10.2744 6.10319 9.88904C6.26381 9.50958 6.46259 9.14385 6.69322 8.80306C6.92198 8.46416 7.18514 8.14709 7.47452 7.85717C7.7636 7.56881 8.08236 7.30701 8.42081 7.07796C8.7627 6.8467 9.12898 6.64857 9.50837 6.48753C9.89465 6.32428 10.2993 6.19916 10.7109 6.11554C11.1322 6.02942 11.566 5.98572 11.9997 5.98572C12.4332 5.98572 12.867 6.02942 13.2889 6.11554C13.6998 6.19919 14.1045 6.32431 14.4911 6.48753C14.8705 6.64854 15.2365 6.8467 15.5783 7.07796C15.9168 7.30701 16.2356 7.56881 16.5253 7.85717C16.8144 8.14709 17.0775 8.46416 17.3059 8.80306C17.5378 9.14385 17.7363 9.5096 17.8962 9.88904C18.06 10.2744 18.185 10.6789 18.2694 11.0902C18.3559 11.5106 18.4 11.9437 18.4 12.3768ZM9.66769 7.44025C8.14354 8.15896 7.00598 9.56137 6.65127 11.2515C6.79536 11.2528 9.07298 11.2815 11.6972 10.5853C10.7512 8.90695 9.74052 7.53733 9.66769 7.44025ZM12.15 11.4257C9.3358 12.267 6.63534 12.2064 6.53847 12.2027C6.53689 12.2614 6.53408 12.3182 6.53408 12.3768C6.53408 13.7789 7.06379 15.0572 7.93447 16.0236C7.93259 16.0208 9.42831 13.3711 12.3778 12.4187C12.4491 12.3949 12.5216 12.3737 12.5935 12.3531C12.4563 12.043 12.3066 11.7321 12.15 11.4257ZM15.6093 8.28066C14.647 7.43338 13.3835 6.91944 11.9997 6.91944C11.5556 6.91944 11.1246 6.97312 10.7118 7.07235C10.7937 7.18221 11.8203 8.54218 12.755 10.256C14.8174 9.48399 15.5958 8.30062 15.6093 8.28066ZM12.966 13.2575C12.9539 13.2615 12.9417 13.265 12.9298 13.2693C9.70498 14.3919 8.65187 16.6543 8.64048 16.679C9.56836 17.3995 10.7322 17.8342 11.9997 17.8342C12.7566 17.8342 13.4776 17.6804 14.1336 17.4017C14.0526 16.9249 13.7351 15.2535 12.966 13.2575ZM15.0539 16.903C16.2812 16.0761 17.1528 14.7629 17.3959 13.2419C17.2834 13.2057 15.7543 12.7223 13.9901 13.0047C14.707 14.972 14.9983 16.5741 15.0539 16.903ZM13.1757 11.0693C13.3026 11.3295 13.4254 11.5944 13.5389 11.8607C13.5792 11.9562 13.6186 12.0498 13.657 12.1434C15.5346 11.9075 17.3844 12.3044 17.4635 12.3206C17.451 11.0268 16.9875 9.83941 16.2206 8.90978C16.2103 8.92442 15.3337 10.1892 13.1757 11.0693Z" fill="white"/>
</svg>
