<svg width="24" height="25" viewBox="0 0 24 25" fill="none" xmlns="http://www.w3.org/2000/svg">
<path opacity="0.1" fill-rule="evenodd" clip-rule="evenodd" d="M0 12.3857C0 5.75833 5.37258 0.385742 12 0.385742C18.6274 0.385742 24 5.75833 24 12.3857C24 19.0132 18.6274 24.3857 12 24.3857C5.37258 24.3857 0 19.0132 0 12.3857Z" fill="#F9F8F9"/>
<path fill-rule="evenodd" clip-rule="evenodd" d="M17.0008 8.26038C17.5515 8.41151 17.9853 8.85682 18.1325 9.42233C18.4 10.4472 18.4 12.5857 18.4 12.5857C18.4 12.5857 18.4 14.7241 18.1325 15.7491C17.9853 16.3146 17.5515 16.7599 17.0008 16.9111C16.0027 17.1857 12 17.1857 12 17.1857C12 17.1857 7.99728 17.1857 6.9991 16.9111C6.44834 16.7599 6.01459 16.3146 5.86739 15.7491C5.59998 14.7241 5.59998 12.5857 5.59998 12.5857C5.59998 12.5857 5.59998 10.4472 5.86739 9.42233C6.01459 8.85682 6.44834 8.41151 6.9991 8.26038C7.99728 7.98572 12 7.98572 12 7.98572C12 7.98572 16.0027 7.98572 17.0008 8.26038ZM10.8 10.7857V14.7857L14 12.7858L10.8 10.7857Z" fill="white"/>
</svg>
