<svg width="24" height="25" viewBox="0 0 24 25" fill="none" xmlns="http://www.w3.org/2000/svg">
<path opacity="0.1" fill-rule="evenodd" clip-rule="evenodd" d="M0 12.3857C0 5.75833 5.37258 0.385742 12 0.385742C18.6274 0.385742 24 5.75833 24 12.3857C24 19.0132 18.6274 24.3857 12 24.3857C5.37258 24.3857 0 19.0132 0 12.3857Z" fill="#F9F8F9"/>
<path fill-rule="evenodd" clip-rule="evenodd" d="M12.0006 5.98572C10.2625 5.98572 10.0443 5.99332 9.36165 6.02438C8.68031 6.05559 8.21523 6.16345 7.8083 6.32172C7.38736 6.48519 7.03029 6.70386 6.67455 7.05973C6.31855 7.41547 6.09988 7.77254 5.93588 8.19334C5.77721 8.60041 5.66921 9.06562 5.63854 9.74669C5.60801 10.4294 5.60001 10.6476 5.60001 12.3858C5.60001 14.1239 5.60774 14.3414 5.63867 15.0241C5.67001 15.7054 5.77787 16.1705 5.93601 16.5774C6.09961 16.9984 6.31828 17.3554 6.67415 17.7112C7.02975 18.0672 7.38682 18.2864 7.8075 18.4498C8.2147 18.6081 8.6799 18.716 9.36111 18.7472C10.0438 18.7783 10.2618 18.7859 11.9998 18.7859C13.7381 18.7859 13.9556 18.7783 14.6382 18.7472C15.3196 18.716 15.7852 18.6081 16.1924 18.4498C16.6132 18.2864 16.9697 18.0672 17.3253 17.7112C17.6813 17.3554 17.9 16.9984 18.064 16.5776C18.2213 16.1705 18.3293 15.7053 18.3613 15.0242C18.392 14.3415 18.4 14.1239 18.4 12.3858C18.4 10.6476 18.392 10.4295 18.3613 9.74682C18.3293 9.06548 18.2213 8.60041 18.064 8.19347C17.9 7.77254 17.6813 7.41547 17.3253 7.05973C16.9693 6.70373 16.6133 6.48506 16.192 6.32172C15.784 6.16345 15.3186 6.05559 14.6373 6.02438C13.9546 5.99332 13.7373 5.98572 11.9986 5.98572H12.0006ZM11.4264 7.13905C11.5968 7.13878 11.787 7.13905 12.0006 7.13905C13.7094 7.13905 13.9119 7.14518 14.5867 7.17585C15.2107 7.20438 15.5494 7.30865 15.775 7.39625C16.0737 7.51225 16.2866 7.65092 16.5105 7.87492C16.7345 8.09892 16.8732 8.31226 16.9894 8.61093C17.077 8.83626 17.1814 9.17493 17.2098 9.79894C17.2405 10.4736 17.2472 10.6763 17.2472 12.3843C17.2472 14.0923 17.2405 14.295 17.2098 14.9697C17.1813 15.5937 17.077 15.9323 16.9894 16.1577C16.8734 16.4563 16.7345 16.669 16.5105 16.8929C16.2865 17.1169 16.0738 17.2556 15.775 17.3716C15.5497 17.4596 15.2107 17.5636 14.5867 17.5921C13.9121 17.6228 13.7094 17.6294 12.0006 17.6294C10.2916 17.6294 10.0891 17.6228 9.41442 17.5921C8.79041 17.5633 8.45174 17.459 8.22601 17.3714C7.92734 17.2554 7.714 17.1167 7.49 16.8927C7.266 16.6687 7.12733 16.4559 7.01106 16.1571C6.92346 15.9318 6.81906 15.5931 6.79066 14.9691C6.75999 14.2945 6.75386 14.0918 6.75386 12.3827C6.75386 10.6736 6.75999 10.472 6.79066 9.79734C6.81919 9.17333 6.92346 8.83466 7.01106 8.60906C7.12706 8.31039 7.266 8.09706 7.49 7.87305C7.714 7.64905 7.92734 7.51038 8.22601 7.39411C8.45161 7.30611 8.79041 7.20211 9.41442 7.17345C10.0048 7.14678 10.2336 7.13878 11.4264 7.13745V7.13905ZM15.4169 8.20173C14.9929 8.20173 14.6489 8.54533 14.6489 8.96947C14.6489 9.39347 14.9929 9.73747 15.4169 9.73747C15.8409 9.73747 16.1849 9.39347 16.1849 8.96947C16.1849 8.54546 15.8409 8.20173 15.4169 8.20173ZM12.0006 9.09907C10.1855 9.09907 8.71392 10.5707 8.71392 12.3858C8.71392 14.2009 10.1855 15.6718 12.0006 15.6718C13.8157 15.6718 15.2868 14.2009 15.2868 12.3858C15.2868 10.5707 13.8157 9.09907 12.0006 9.09907ZM12.0006 10.2524C13.1787 10.2524 14.1339 11.2075 14.1339 12.3858C14.1339 13.5639 13.1787 14.5191 12.0006 14.5191C10.8223 14.5191 9.86724 13.5639 9.86724 12.3858C9.86724 11.2075 10.8223 10.2524 12.0006 10.2524Z" fill="white"/>
</svg>
